<svg xmlns="http://www.w3.org/2000/svg" xmlns:xlink="http://www.w3.org/1999/xlink" width="211" zoomAndPan="magnify" viewBox="0 0 158.25 63.749998" height="85" preserveAspectRatio="xMidYMid meet" version="1.0"><defs><g/><clipPath id="aeac02b4ad"><path d="M 55.597656 0.773438 L 101.878906 0.773438 L 101.878906 23.914062 L 55.597656 23.914062 Z M 55.597656 0.773438 " clip-rule="nonzero"/></clipPath><clipPath id="d55140f7fc"><path d="M 68.726562 21 L 76 21 L 76 27.53125 L 68.726562 27.53125 Z M 68.726562 21 " clip-rule="nonzero"/></clipPath><clipPath id="d3f70fbb80"><path d="M 76 15.585938 L 85 15.585938 L 85 24 L 76 24 Z M 76 15.585938 " clip-rule="nonzero"/></clipPath><clipPath id="3740edacfa"><path d="M 73 15.585938 L 88.878906 15.585938 L 88.878906 27.53125 L 73 27.53125 Z M 73 15.585938 " clip-rule="nonzero"/></clipPath></defs><g fill="#000000" fill-opacity="1"><g transform="translate(0.205193, 54.905959)"><g><path d="M 11.28125 0.4375 C 9.925781 0.4375 8.644531 0.1875 7.4375 -0.3125 C 6.226562 -0.820312 5.15625 -1.523438 4.21875 -2.421875 C 3.289062 -3.316406 2.554688 -4.363281 2.015625 -5.5625 C 1.484375 -6.769531 1.21875 -8.09375 1.21875 -9.53125 C 1.21875 -10.9375 1.488281 -12.242188 2.03125 -13.453125 C 2.582031 -14.660156 3.332031 -15.710938 4.28125 -16.609375 C 5.226562 -17.503906 6.304688 -18.203125 7.515625 -18.703125 C 8.734375 -19.203125 10.003906 -19.453125 11.328125 -19.453125 C 13.253906 -19.453125 14.984375 -19.015625 16.515625 -18.140625 C 18.046875 -17.273438 19.253906 -16.09375 20.140625 -14.59375 C 21.023438 -13.101562 21.46875 -11.414062 21.46875 -9.53125 C 21.46875 -7.613281 21.023438 -5.90625 20.140625 -4.40625 C 19.253906 -2.90625 18.046875 -1.722656 16.515625 -0.859375 C 14.984375 0.00390625 13.238281 0.4375 11.28125 0.4375 Z M 16.796875 -9.5 C 16.796875 -10.519531 16.578125 -11.472656 16.140625 -12.359375 C 15.703125 -13.242188 15.078125 -13.953125 14.265625 -14.484375 C 13.453125 -15.023438 12.484375 -15.296875 11.359375 -15.296875 C 10.234375 -15.296875 9.257812 -15.019531 8.4375 -14.46875 C 7.613281 -13.925781 6.976562 -13.21875 6.53125 -12.34375 C 6.09375 -11.46875 5.875 -10.519531 5.875 -9.5 C 5.875 -8.46875 6.09375 -7.515625 6.53125 -6.640625 C 6.976562 -5.773438 7.613281 -5.070312 8.4375 -4.53125 C 9.257812 -3.988281 10.234375 -3.71875 11.359375 -3.71875 C 12.484375 -3.71875 13.453125 -3.988281 14.265625 -4.53125 C 15.078125 -5.070312 15.703125 -5.773438 16.140625 -6.640625 C 16.578125 -7.515625 16.796875 -8.46875 16.796875 -9.5 Z M 16.796875 -9.5 "/></g></g></g><g fill="#000000" fill-opacity="1"><g transform="translate(23.486676, 54.905959)"><g><path d="M 14.875 -16.953125 C 14.875 -17.566406 15.09375 -18.097656 15.53125 -18.546875 C 15.96875 -19.003906 16.507812 -19.234375 17.15625 -19.234375 C 17.78125 -19.234375 18.316406 -19.003906 18.765625 -18.546875 C 19.222656 -18.097656 19.453125 -17.566406 19.453125 -16.953125 L 19.453125 -1.9375 C 19.453125 -1.332031 19.242188 -0.820312 18.828125 -0.40625 C 18.410156 0.0078125 17.890625 0.21875 17.265625 0.21875 C 16.710938 0.21875 16.234375 0.0351562 15.828125 -0.328125 C 15.429688 -0.703125 15.207031 -1.164062 15.15625 -1.71875 L 15.125 -2.25 C 13.6875 -1.226562 12.472656 -0.523438 11.484375 -0.140625 C 10.492188 0.242188 9.4375 0.4375 8.3125 0.4375 C 6.78125 0.4375 5.609375 0.132812 4.796875 -0.46875 C 3.984375 -1.082031 3.425781 -1.867188 3.125 -2.828125 C 2.832031 -3.785156 2.6875 -4.789062 2.6875 -5.84375 L 2.6875 -16.953125 C 2.6875 -17.566406 2.910156 -18.097656 3.359375 -18.546875 C 3.816406 -19.003906 4.359375 -19.234375 4.984375 -19.234375 C 5.597656 -19.234375 6.128906 -19.003906 6.578125 -18.546875 C 7.035156 -18.097656 7.265625 -17.566406 7.265625 -16.953125 L 7.265625 -7.234375 C 7.265625 -6.046875 7.457031 -5.160156 7.84375 -4.578125 C 8.226562 -4.003906 8.957031 -3.71875 10.03125 -3.71875 C 10.894531 -3.71875 11.710938 -3.988281 12.484375 -4.53125 C 13.265625 -5.070312 14.0625 -5.78125 14.875 -6.65625 Z M 14.875 -16.953125 "/></g></g></g><g fill="#000000" fill-opacity="1"><g transform="translate(46.481615, 54.905959)"><g><path d="M 2.296875 -15.015625 C 1.742188 -15.015625 1.269531 -15.207031 0.875 -15.59375 C 0.476562 -15.988281 0.28125 -16.460938 0.28125 -17.015625 C 0.28125 -17.566406 0.476562 -18.039062 0.875 -18.4375 C 1.269531 -18.832031 1.742188 -19.03125 2.296875 -19.03125 L 3.046875 -19.03125 L 3.046875 -22.859375 C 3.046875 -23.503906 3.269531 -24.050781 3.71875 -24.5 C 4.175781 -24.957031 4.726562 -25.1875 5.375 -25.1875 C 6 -25.1875 6.535156 -24.957031 6.984375 -24.5 C 7.441406 -24.050781 7.671875 -23.503906 7.671875 -22.859375 L 7.671875 -19.03125 L 9 -19.03125 C 9.539062 -19.03125 10.007812 -18.832031 10.40625 -18.4375 C 10.800781 -18.039062 11 -17.566406 11 -17.015625 C 11 -16.460938 10.800781 -15.988281 10.40625 -15.59375 C 10.007812 -15.207031 9.539062 -15.015625 9 -15.015625 L 7.671875 -15.015625 L 7.671875 -5.765625 C 7.671875 -5.046875 7.796875 -4.539062 8.046875 -4.25 C 8.296875 -3.96875 8.789062 -3.804688 9.53125 -3.765625 C 10.007812 -3.734375 10.425781 -3.546875 10.78125 -3.203125 C 11.144531 -2.859375 11.328125 -2.410156 11.328125 -1.859375 C 11.328125 -1.023438 11.003906 -0.453125 10.359375 -0.140625 C 9.710938 0.171875 8.816406 0.328125 7.671875 0.328125 C 6.191406 0.328125 5.054688 0.015625 4.265625 -0.609375 C 3.472656 -1.234375 3.078125 -2.414062 3.078125 -4.15625 L 3.078125 -15.015625 Z M 2.296875 -15.015625 "/></g></g></g><g fill="#000000" fill-opacity="1"><g transform="translate(58.4807, 54.905959)"><g><path d="M 12.609375 -3.6875 C 13.753906 -3.707031 14.722656 -3.988281 15.515625 -4.53125 C 16.304688 -5.070312 16.898438 -5.78125 17.296875 -6.65625 C 17.703125 -7.539062 17.90625 -8.488281 17.90625 -9.5 C 17.90625 -10.5 17.703125 -11.441406 17.296875 -12.328125 C 16.898438 -13.210938 16.320312 -13.929688 15.5625 -14.484375 C 14.8125 -15.046875 13.898438 -15.328125 12.828125 -15.328125 C 11.847656 -15.328125 10.953125 -15.070312 10.140625 -14.5625 C 9.328125 -14.050781 8.679688 -13.351562 8.203125 -12.46875 C 7.722656 -11.582031 7.484375 -10.566406 7.484375 -9.421875 C 7.484375 -8.441406 7.679688 -7.515625 8.078125 -6.640625 C 8.472656 -5.773438 9.050781 -5.070312 9.8125 -4.53125 C 10.582031 -3.988281 11.515625 -3.707031 12.609375 -3.6875 Z M 5.484375 7.875 C 4.859375 7.875 4.316406 7.644531 3.859375 7.1875 C 3.410156 6.738281 3.1875 6.207031 3.1875 5.59375 L 3.1875 -17.203125 C 3.1875 -17.773438 3.382812 -18.253906 3.78125 -18.640625 C 4.175781 -19.035156 4.660156 -19.234375 5.234375 -19.234375 C 5.753906 -19.234375 6.210938 -19.054688 6.609375 -18.703125 C 7.003906 -18.347656 7.210938 -17.90625 7.234375 -17.375 L 7.3125 -16.34375 C 8.070312 -17.195312 8.984375 -17.925781 10.046875 -18.53125 C 11.109375 -19.144531 12.296875 -19.453125 13.609375 -19.453125 C 14.785156 -19.453125 15.90625 -19.203125 16.96875 -18.703125 C 18.03125 -18.203125 18.984375 -17.5 19.828125 -16.59375 C 20.679688 -15.6875 21.351562 -14.609375 21.84375 -13.359375 C 22.332031 -12.117188 22.578125 -10.75 22.578125 -9.25 C 22.578125 -7.289062 22.15625 -5.582031 21.3125 -4.125 C 20.476562 -2.664062 19.367188 -1.539062 17.984375 -0.75 C 16.597656 0.0390625 15.09375 0.4375 13.46875 0.4375 C 12.226562 0.4375 11.160156 0.21875 10.265625 -0.21875 C 9.367188 -0.664062 8.539062 -1.296875 7.78125 -2.109375 L 7.78125 5.59375 C 7.78125 6.207031 7.550781 6.738281 7.09375 7.1875 C 6.632812 7.644531 6.097656 7.875 5.484375 7.875 Z M 5.484375 7.875 "/></g></g></g><g fill="#000000" fill-opacity="1"><g transform="translate(82.406654, 54.905959)"><g><path d="M 14.015625 -6.703125 C 14.015625 -7.390625 13.8125 -7.953125 13.40625 -8.390625 C 13 -8.835938 12.472656 -9.164062 11.828125 -9.375 C 11.179688 -9.59375 10.5 -9.703125 9.78125 -9.703125 C 8.6875 -9.703125 7.734375 -9.425781 6.921875 -8.875 C 6.109375 -8.332031 5.703125 -7.609375 5.703125 -6.703125 C 5.703125 -5.796875 6.078125 -5.054688 6.828125 -4.484375 C 7.578125 -3.910156 8.523438 -3.625 9.671875 -3.625 C 10.410156 -3.625 11.109375 -3.734375 11.765625 -3.953125 C 12.421875 -4.179688 12.957031 -4.519531 13.375 -4.96875 C 13.800781 -5.425781 14.015625 -6.003906 14.015625 -6.703125 Z M 16.234375 0.21875 C 15.660156 0.21875 15.175781 0.0351562 14.78125 -0.328125 C 14.382812 -0.703125 14.148438 -1.164062 14.078125 -1.71875 L 14.046875 -1.96875 C 14.046875 -1.96875 13.9375 -1.847656 13.71875 -1.609375 C 13.507812 -1.367188 13.179688 -1.085938 12.734375 -0.765625 C 12.296875 -0.441406 11.738281 -0.160156 11.0625 0.078125 C 10.394531 0.316406 9.597656 0.4375 8.671875 0.4375 C 7.359375 0.4375 6.132812 0.144531 5 -0.4375 C 3.863281 -1.03125 2.945312 -1.859375 2.25 -2.921875 C 1.5625 -3.984375 1.21875 -5.226562 1.21875 -6.65625 C 1.21875 -8.144531 1.578125 -9.382812 2.296875 -10.375 C 3.015625 -11.363281 3.9375 -12.109375 5.0625 -12.609375 C 6.195312 -13.109375 7.410156 -13.359375 8.703125 -13.359375 C 9.828125 -13.359375 10.769531 -13.207031 11.53125 -12.90625 C 12.300781 -12.613281 12.890625 -12.3125 13.296875 -12 C 13.703125 -11.6875 13.90625 -11.53125 13.90625 -11.53125 L 13.90625 -12.1875 C 13.90625 -13.0625 13.566406 -13.820312 12.890625 -14.46875 C 12.222656 -15.113281 11.03125 -15.4375 9.3125 -15.4375 C 8.695312 -15.4375 8.078125 -15.375 7.453125 -15.25 C 6.828125 -15.132812 6.300781 -15.078125 5.875 -15.078125 C 5.351562 -15.078125 4.898438 -15.226562 4.515625 -15.53125 C 4.128906 -15.832031 3.9375 -16.253906 3.9375 -16.796875 C 3.9375 -17.535156 4.242188 -18.097656 4.859375 -18.484375 C 5.484375 -18.867188 6.273438 -19.125 7.234375 -19.25 C 8.191406 -19.382812 9.171875 -19.453125 10.171875 -19.453125 C 13.085938 -19.453125 15.191406 -18.773438 16.484375 -17.421875 C 17.773438 -16.078125 18.421875 -13.984375 18.421875 -11.140625 L 18.421875 -1.96875 C 18.421875 -1.375 18.207031 -0.859375 17.78125 -0.421875 C 17.363281 0.00390625 16.847656 0.21875 16.234375 0.21875 Z M 16.234375 0.21875 "/></g></g></g><g fill="#000000" fill-opacity="1"><g transform="translate(103.252571, 54.905959)"><g><path d="M 5.046875 0.21875 C 4.398438 0.21875 3.847656 -0.00390625 3.390625 -0.453125 C 2.941406 -0.910156 2.71875 -1.460938 2.71875 -2.109375 L 2.71875 -16.90625 C 2.71875 -17.550781 2.941406 -18.097656 3.390625 -18.546875 C 3.847656 -19.003906 4.390625 -19.234375 5.015625 -19.234375 C 5.640625 -19.234375 6.175781 -19.03125 6.625 -18.625 C 7.082031 -18.21875 7.320312 -17.707031 7.34375 -17.09375 L 7.421875 -15.84375 C 7.628906 -16.382812 7.914062 -16.910156 8.28125 -17.421875 C 8.65625 -17.941406 9.09375 -18.367188 9.59375 -18.703125 C 10.101562 -19.035156 10.644531 -19.203125 11.21875 -19.203125 C 11.757812 -19.203125 12.25 -19.03125 12.6875 -18.6875 C 13.132812 -18.34375 13.359375 -17.859375 13.359375 -17.234375 C 13.359375 -16.847656 13.273438 -16.421875 13.109375 -15.953125 C 12.941406 -15.492188 12.550781 -15.265625 11.9375 -15.265625 C 10.738281 -15.265625 9.8125 -14.957031 9.15625 -14.34375 C 8.5 -13.738281 8.046875 -12.945312 7.796875 -11.96875 C 7.546875 -10.988281 7.421875 -9.9375 7.421875 -8.8125 L 7.421875 -2.109375 C 7.421875 -1.460938 7.191406 -0.910156 6.734375 -0.453125 C 6.285156 -0.00390625 5.722656 0.21875 5.046875 0.21875 Z M 5.046875 0.21875 "/></g></g></g><g fill="#000000" fill-opacity="1"><g transform="translate(117.006699, 54.905959)"><g><path d="M 9.671875 0.4375 C 9.078125 0.4375 8.351562 0.367188 7.5 0.234375 C 6.65625 0.0976562 5.820312 -0.109375 5 -0.390625 C 4.175781 -0.679688 3.484375 -1.039062 2.921875 -1.46875 C 2.359375 -1.894531 2.078125 -2.410156 2.078125 -3.015625 C 2.078125 -3.679688 2.289062 -4.175781 2.71875 -4.5 C 3.15625 -4.820312 3.597656 -4.984375 4.046875 -4.984375 C 4.546875 -4.984375 5.109375 -4.828125 5.734375 -4.515625 C 6.492188 -4.128906 7.207031 -3.84375 7.875 -3.65625 C 8.550781 -3.46875 9.160156 -3.375 9.703125 -3.375 C 10.679688 -3.375 11.445312 -3.582031 12 -4 C 12.550781 -4.414062 12.828125 -4.910156 12.828125 -5.484375 C 12.828125 -6.097656 12.578125 -6.5625 12.078125 -6.875 C 11.578125 -7.1875 10.925781 -7.4375 10.125 -7.625 C 9.320312 -7.820312 8.472656 -8.03125 7.578125 -8.25 C 6.679688 -8.476562 5.832031 -8.785156 5.03125 -9.171875 C 4.226562 -9.554688 3.578125 -10.097656 3.078125 -10.796875 C 2.578125 -11.503906 2.328125 -12.441406 2.328125 -13.609375 C 2.328125 -14.921875 2.632812 -16.007812 3.25 -16.875 C 3.875 -17.738281 4.71875 -18.382812 5.78125 -18.8125 C 6.84375 -19.238281 8.03125 -19.453125 9.34375 -19.453125 C 9.96875 -19.453125 10.65625 -19.394531 11.40625 -19.28125 C 12.164062 -19.175781 12.882812 -19.007812 13.5625 -18.78125 C 14.238281 -18.5625 14.789062 -18.265625 15.21875 -17.890625 C 15.65625 -17.523438 15.875 -17.078125 15.875 -16.546875 C 15.875 -16.023438 15.6875 -15.570312 15.3125 -15.1875 C 14.945312 -14.8125 14.488281 -14.625 13.9375 -14.625 C 13.507812 -14.625 13.054688 -14.726562 12.578125 -14.9375 C 11.398438 -15.4375 10.300781 -15.6875 9.28125 -15.6875 C 8.414062 -15.6875 7.734375 -15.539062 7.234375 -15.25 C 6.734375 -14.96875 6.484375 -14.566406 6.484375 -14.046875 C 6.484375 -13.421875 6.738281 -12.953125 7.25 -12.640625 C 7.769531 -12.335938 8.425781 -12.082031 9.21875 -11.875 C 10.019531 -11.675781 10.867188 -11.460938 11.765625 -11.234375 C 12.660156 -11.003906 13.507812 -10.6875 14.3125 -10.28125 C 15.113281 -9.875 15.769531 -9.296875 16.28125 -8.546875 C 16.789062 -7.796875 17.046875 -6.785156 17.046875 -5.515625 C 17.046875 -4.109375 16.710938 -2.960938 16.046875 -2.078125 C 15.378906 -1.191406 14.488281 -0.550781 13.375 -0.15625 C 12.269531 0.238281 11.035156 0.4375 9.671875 0.4375 Z M 9.671875 0.4375 "/></g></g></g><g fill="#000000" fill-opacity="1"><g transform="translate(135.918483, 54.905959)"><g><path d="M 10.609375 -15.375 C 9.359375 -15.375 8.320312 -15.019531 7.5 -14.3125 C 6.675781 -13.601562 6.097656 -12.628906 5.765625 -11.390625 L 15.515625 -11.390625 C 15.148438 -12.679688 14.535156 -13.664062 13.671875 -14.34375 C 12.816406 -15.03125 11.796875 -15.375 10.609375 -15.375 Z M 14.328125 -4.90625 C 14.734375 -5.238281 15.203125 -5.40625 15.734375 -5.40625 C 16.253906 -5.40625 16.734375 -5.207031 17.171875 -4.8125 C 17.617188 -4.425781 17.84375 -3.945312 17.84375 -3.375 C 17.84375 -2.894531 17.6875 -2.507812 17.375 -2.21875 C 16.488281 -1.332031 15.46875 -0.664062 14.3125 -0.21875 C 13.15625 0.21875 11.921875 0.4375 10.609375 0.4375 C 8.671875 0.4375 6.992188 -0.00390625 5.578125 -0.890625 C 4.171875 -1.773438 3.09375 -2.945312 2.34375 -4.40625 C 1.59375 -5.863281 1.21875 -7.453125 1.21875 -9.171875 C 1.21875 -11.035156 1.597656 -12.75 2.359375 -14.3125 C 3.128906 -15.875 4.21875 -17.117188 5.625 -18.046875 C 7.03125 -18.984375 8.710938 -19.453125 10.671875 -19.453125 C 11.941406 -19.453125 13.128906 -19.222656 14.234375 -18.765625 C 15.347656 -18.316406 16.328125 -17.695312 17.171875 -16.90625 C 18.023438 -16.125 18.691406 -15.222656 19.171875 -14.203125 C 19.648438 -13.191406 19.890625 -12.113281 19.890625 -10.96875 C 19.890625 -10.15625 19.609375 -9.460938 19.046875 -8.890625 C 18.484375 -8.316406 17.785156 -8.03125 16.953125 -8.03125 L 5.765625 -8.03125 C 5.765625 -8.03125 5.78125 -7.882812 5.8125 -7.59375 C 5.851562 -7.3125 5.945312 -6.953125 6.09375 -6.515625 C 6.238281 -6.085938 6.484375 -5.648438 6.828125 -5.203125 C 7.171875 -4.765625 7.648438 -4.398438 8.265625 -4.109375 C 8.890625 -3.828125 9.691406 -3.6875 10.671875 -3.6875 C 11.441406 -3.6875 12.128906 -3.800781 12.734375 -4.03125 C 13.347656 -4.257812 13.878906 -4.550781 14.328125 -4.90625 Z M 14.328125 -4.90625 "/></g></g></g><g clip-path="url(#aeac02b4ad)"><path fill="#024ff9" d="M 78.75 0.773438 C 78.75 0.773438 68.828125 7.386719 62.214844 10.695312 C 55.597656 14.003906 55.597656 23.925781 55.597656 23.925781 L 57.828125 23.925781 C 58.246094 21.558594 59.160156 18.207031 61.179688 15.679688 C 64.648438 11.339844 79.667969 4.539062 79.667969 4.539062 C 79.667969 4.539062 94.457031 11.96875 98.15625 15.679688 C 100.363281 17.898438 101.246094 21.429688 101.605469 23.925781 L 101.902344 23.925781 C 101.902344 23.925781 101.902344 14.003906 95.289062 10.695312 C 88.671875 7.386719 78.75 0.773438 78.75 0.773438 Z M 78.75 0.773438 " fill-opacity="1" fill-rule="nonzero"/></g><g clip-path="url(#d55140f7fc)"><path fill="#3dd437" d="M 69.152344 21.398438 C 68.738281 21.8125 68.738281 22.480469 69.152344 22.894531 L 73.1875 26.929688 C 73.386719 27.128906 73.65625 27.238281 73.9375 27.238281 C 74.21875 27.238281 74.488281 27.128906 74.683594 26.929688 L 75.453125 26.160156 L 70.652344 21.398438 C 70.238281 20.984375 69.566406 20.984375 69.152344 21.398438 Z M 69.152344 21.398438 " fill-opacity="1" fill-rule="nonzero"/></g><g clip-path="url(#d3f70fbb80)"><path fill="#3dd437" d="M 84.117188 17.5 C 84.53125 17.085938 84.53125 16.414062 84.117188 16 C 83.703125 15.585938 83.03125 15.585938 82.617188 16 L 76.652344 21.96875 L 78.148438 23.464844 Z M 84.117188 17.5 " fill-opacity="1" fill-rule="nonzero"/></g><g clip-path="url(#3740edacfa)"><path fill="#3dd437" d="M 88.347656 16 C 88.144531 15.792969 87.871094 15.691406 87.601562 15.691406 C 87.328125 15.691406 87.058594 15.792969 86.851562 16 L 78.167969 24.683594 L 74.882812 21.398438 C 74.675781 21.191406 74.40625 21.085938 74.132812 21.085938 C 73.863281 21.085938 73.589844 21.191406 73.386719 21.398438 C 72.972656 21.8125 72.972656 22.480469 73.386719 22.894531 L 74.554688 24.066406 L 77.417969 26.929688 C 77.625 27.136719 77.898438 27.238281 78.167969 27.238281 C 78.4375 27.238281 78.710938 27.136719 78.917969 26.929688 L 88.347656 17.5 C 88.761719 17.085938 88.761719 16.414062 88.347656 16 Z M 88.347656 16 " fill-opacity="1" fill-rule="nonzero"/></g></svg>